<?xml version="1.0" encoding="utf-8"?>
<!-- Generator: Adobe Illustrator 21.1.0, SVG Export Plug-In . SVG Version: 6.00 Build 0)  -->
<svg version="1.1" id="Layer_1" xmlns="http://www.w3.org/2000/svg" xmlns:xlink="http://www.w3.org/1999/xlink" x="0px" y="0px"
	 width="286.9px" height="143px" viewBox="0 0 286.9 143" style="enable-background:new 0 0 286.9 143;" xml:space="preserve">
<style type="text/css">
	.st0{fill:#FFFFFF;}
</style>
<g>
	<g>
		<path class="st0" d="M178.9,30.9h-2.3c-1,0-1.8,0.8-1.8,1.8v13c0,8.7-5.9,11.8-10.7,11.8c-4.1,0-8.9-2.8-15.3-8.4
			c-6.9-6.6-14.1-13-21.2-19.7c-1-1-1.5-1-2.6-1h-0.8c-1,0-1.5,0.8-1.5,1.5v32c0,1,0.8,1.5,1.5,1.5h2.3c1,0,1.5-0.8,1.5-1.5V37.3
			h0.3l17.1,16.1c6.1,5.9,11.8,10.5,19.2,10.5c8.7,0,16.1-6.1,16.1-18.2v-13C180.7,31.7,179.9,30.9,178.9,30.9z"/>
		<path class="st0" d="M138,24.5c6.9,6.6,14.1,13,21.2,19.7c1,1,1.5,1,2.6,1h1c1,0,1.5-0.8,1.5-1.5V13.3l4.9,4.9
			c0.5,0.5,1.8,0.5,2.3,0l1.5-1.5c0.5-0.5,0.5-1.8,0-2.3l-9-9l-1.5-1.5c-0.5-0.5-1.8-0.8-2.3,0l-10.5,10.5c-0.5,0.5-0.5,1.8,0,2.3
			l1.8,1.5c0.5,0.5,1.8,0.5,2.3,0l5.1-5.1v23.3h-0.3l-17.1-16.1c-6.1-5.9-11.8-10.5-19.2-10.5c-8.4,0-16.1,6.1-16.1,18.2v13
			c0,1,0.8,1.8,1.8,1.8h2.3c1,0,1.8-0.8,1.8-1.8v-13c0-8.7,5.9-11.8,10.7-11.8C126.7,16.1,131.6,18.9,138,24.5z"/>
	</g>
	<g>
		<g>
			<path class="st0" d="M273.6,98.1h-1.3c0,0-0.2,0-0.2-0.2v-0.6c0,0,0-0.2,0.2-0.2h3.5c0,0,0.2,0,0.2,0.2v0.7c0,0,0,0.2-0.2,0.2
				h-1.3v4.2c0,0,0,0.2-0.2,0.2h-0.7c0,0-0.2,0-0.2-0.2v-4.4H273.6z"/>
			<path class="st0" d="M277.3,97.2L277.3,97.2l0.2-0.2h0.2l1.7,3.7l0,0L281,97c0,0,0,0,0.2,0h0.2c0,0,0.2,0,0.2,0.2l0.9,5.4
				c0,0.2,0,0.2-0.2,0.2h-0.7c0,0-0.2,0-0.2-0.2l-0.4-3l0,0l-1.5,3.1c0,0,0,0-0.2,0h-0.2h-0.2l-1.5-3.1l0,0l-0.2,3.1
				c0,0,0,0.2-0.2,0.2h-0.7c-0.2,0-0.2,0-0.2-0.2L277.3,97.2z"/>
		</g>
		<g>
			<path class="st0" d="M8.6,136.2h20.3c0.6,0,0.7,0.4,0.7,0.7v0.9c0,0.4-0.4,0.7-0.7,0.7H5.2c-0.6,0-0.7-0.4-0.7-0.7v-0.6
				c0-0.4,0.2-0.7,0.4-0.9l15.7-15.7c4.2-4.2,6.6-8.1,6.6-12c0-4.6-3.1-9.2-10.2-9.2c-5.5,0-8.5,4.1-9.2,5c-0.4,0.2-0.9,0.2-1.3,0
				l-0.7-0.6c-0.4-0.4-0.4-0.7-0.2-1.3c0,0,3.7-6.1,11.3-6.1c8.7,0,13.1,5.5,13.1,11.8c0,5.4-3.3,9.4-7.8,13.9L8.6,136.2L8.6,136.2z
				"/>
			<path class="st0" d="M41.1,136.2h20.3c0.6,0,0.7,0.4,0.7,0.7v0.9c0,0.4-0.4,0.7-0.7,0.7H37.7c-0.6,0-0.7-0.4-0.7-0.7v-0.6
				c0-0.4,0.2-0.7,0.4-0.9l15.7-15.7c4.2-4.2,6.6-8.1,6.6-12c0-4.6-3.1-9.2-10.2-9.2c-5.5,0-8.5,4.1-9.2,5c-0.4,0.2-0.9,0.2-1.3,0
				l-0.7-0.6c-0.4-0.4-0.4-0.7-0.2-1.1c0,0,3.7-6.1,11.3-6.1c8.7,0,13.1,5.5,13.1,11.8c0,5.4-3.3,9.4-7.8,13.9L41.1,136.2
				L41.1,136.2z"/>
			<path class="st0" d="M71.2,97.8c0-0.6,0.6-1.1,1.1-1.1h0.9c0.6,0,0.9,0.4,1.5,0.9l22.7,21.8l0,0V98.3c0-0.6,0.6-1.1,1.1-1.1h7
				c0.6,0,1.1,0.6,1.1,1.1V138c0,0.7-0.6,1.1-1.1,1.1H105c-0.6,0-0.9-0.2-1.5-0.7l-23.1-22.9l0,0v22c0,0.6-0.6,1.1-1.1,1.1h-7
				c-0.6,0-1.1-0.6-1.1-1.1V97.8z"/>
			<path class="st0" d="M134.9,96.7c11.8,0,21.2,9.6,21.2,21.4c0,11.8-9.4,21.2-21.2,21.2c-11.8,0-21.2-9.4-21.2-21.2
				C113.6,106.1,123.1,96.7,134.9,96.7z M134.9,129.7c6.5,0,11.8-5.4,11.8-11.8c0-6.5-5.4-11.8-11.8-11.8c-6.5,0-11.8,5.4-11.8,11.8
				C123.1,124.4,128.4,129.7,134.9,129.7z"/>
			<path class="st0" d="M163.1,98.3c0-0.6,0.6-1.1,1.1-1.1H182c7.6,0,12.9,5.7,12.9,12.7c0,5.4-3.3,9.8-8.7,11.8l8.1,15
				c0.4,0.7,0,1.7-0.9,1.7h-7.9c-0.6,0-0.7-0.4-0.9-0.6l-7.9-15.7h-4.1v15.1c0,0.6-0.6,1.1-1.1,1.1h-7c-0.7,0-1.1-0.6-1.1-1.1v-39
				H163.1z M181.1,115c2.4,0,4.4-2,4.4-4.8c0-2.8-2-4.4-4.4-4.4h-8.7v9.2H181.1z"/>
			<path class="st0" d="M208.8,105.9h-8.5c-0.7,0-1.1-0.6-1.1-1.1v-6.5c0-0.6,0.6-1.1,1.1-1.1h26.2c0.7,0,1.1,0.6,1.1,1.1v6.5
				c0,0.6-0.6,1.1-1.1,1.1H218v31.6c0,0.6-0.6,1.1-1.1,1.1h-7c-0.6,0-1.1-0.6-1.1-1.1V105.9z"/>
			<path class="st0" d="M233.9,98.3c0-0.6,0.6-1.1,1.1-1.1h7c0.7,0,1.1,0.6,1.1,1.1v15h17v-15c0-0.6,0.6-1.1,1.1-1.1h7
				c0.6,0,1.1,0.6,1.1,1.1v39.2c0,0.6-0.6,1.1-1.1,1.1h-7c-0.7,0-1.1-0.6-1.1-1.1V122h-17v15.5c0,0.6-0.6,1.1-1.1,1.1h-7
				c-0.6,0-1.1-0.6-1.1-1.1V98.3z"/>
		</g>
	</g>
</g>
</svg>
