<?xml version="1.0" encoding="utf-8"?>
<!-- Generator: Adobe Illustrator 21.1.0, SVG Export Plug-In . SVG Version: 6.00 Build 0)  -->
<svg version="1.1" id="Layer_1" xmlns="http://www.w3.org/2000/svg" xmlns:xlink="http://www.w3.org/1999/xlink" x="0px" y="0px"
	 width="69.9px" height="69.9px" viewBox="0 0 69.9 69.9" style="enable-background:new 0 0 69.9 69.9;" xml:space="preserve">
<style type="text/css">
	.st0{fill:#B5B6B6;}
	.st1{fill:#7F7F7F;}
</style>
<g>
	<g>
		<path class="st0" d="M21,55.2c1.3-0.9,2.6-3.9,3.3-5.5l1.6-0.4c-0.4-2-1.6-2.2-2.1-3.6c-0.2-2.1-0.4-4.2-0.6-6.4
			c0,0.1-1.5-0.3-1.6-0.4c-2.1-1.3-2.1-6.5-2.3-8.7c-0.1-1,1.3-1.8,0.9-3.6c-2.3-10.7,1-15.7,6.1-17.3C29.8,8,36.4,5.3,42.6,9.1
			l1.5,1.4l2.5,0.4c1.2,0.7,2,3.1,2,3.1c0.7,2.6,0.7,2.8,0.7,5.5c0,1-0.6,5.8-0.5,7.3c0.1,1.2,0.4,1.3,0.9,2.3
			c0.8,1.7,0.6,4.1,0.2,5.9c-0.2,1-0.5,2.3-1.1,3.1c-0.6,0.9-1.9,0.9-2.4,1.9c-0.8,1.5-0.3,3.5-0.8,5.1c-0.6,1.8-2,1.9-2.1,4.2
			c0.7,0.1,1.4,0.2,2.1,0.3c0.7,1.5,2,4.5,3.3,5.5c1.1,0.3,2.2,0.6,3.3,0.9c2.2,0.9,4.5,1.9,6.8,2.9c6.1-6.2,9.9-14.7,9.9-24
			c0-18.8-15.2-34-34-34c-18.8,0-34,15.2-34,34c0,9.4,3.8,17.9,9.9,24c2.3-1,4.6-2,6.8-2.9C18.8,55.8,19.9,55.5,21,55.2z"/>
	</g>
	<path class="st1" d="M35,69c9.4,0,17.9-3.8,24.1-10c-2.3-1-4.6-2-6.8-2.9c-1.1-0.3-2.2-0.6-3.3-0.9c-1.3-0.9-2.6-3.9-3.3-5.5
		c-0.7-0.1-1.4-0.2-2.1-0.3c0.1-2.3,1.6-2.5,2.1-4.2c0.5-1.6,0.1-3.6,0.8-5.1c0.6-1,1.8-1,2.4-1.9c0.6-0.8,0.9-2.2,1.1-3.1
		c0.3-1.8,0.6-4.2-0.2-5.9c-0.5-1-0.8-1.1-0.9-2.3c-0.2-1.5,0.4-6.3,0.5-7.3c0.1-2.7,0-2.9-0.7-5.5c0,0-0.8-2.4-2-3.1l-2.5-0.4
		l-1.5-1.4C36.4,5.3,29.8,8,26.3,9.4c-5.1,1.7-8.3,6.7-6.1,17.3c0.4,1.8-1,2.6-0.9,3.6c0.2,2.2,0.2,7.4,2.3,8.7
		c0.2,0.1,1.6,0.5,1.6,0.4c0.2,2.1,0.4,4.2,0.6,6.4c0.5,1.4,1.7,1.6,2.1,3.6l-1.6,0.4c-0.7,1.5-2,4.5-3.3,5.5
		c-1.1,0.3-2.2,0.6-3.3,0.9C15.5,57,13.2,58,10.9,59C17,65.2,25.6,69,35,69z"/>
</g>
</svg>
