<?xml version="1.0" encoding="utf-8"?>
<!-- Generator: Adobe Illustrator 21.1.0, SVG Export Plug-In . SVG Version: 6.00 Build 0)  -->
<svg version="1.1" id="Layer_1" xmlns="http://www.w3.org/2000/svg" xmlns:xlink="http://www.w3.org/1999/xlink" x="0px" y="0px"
	 width="53.9px" height="53.9px" viewBox="0 0 53.9 53.9" style="enable-background:new 0 0 53.9 53.9;" xml:space="preserve">
<style type="text/css">
	.st0{fill:#FFFFFF;}
</style>
<path class="st0" d="M26.9,1.2C12.7,1.2,1.2,12.7,1.2,26.9c0,8.6,4.2,16.1,10.6,20.8c4.2,3.1,9.5,4.9,15.1,4.9s10.9-1.8,15.1-4.9
	c6.4-4.7,10.6-12.3,10.6-20.8C52.7,12.7,41.2,1.2,26.9,1.2z M26.9,9.7c5.4,0,9.7,4.3,9.7,9.7s-4.3,9.7-9.7,9.7
	c-5.4,0-9.7-4.3-9.7-9.7S21.6,9.7,26.9,9.7z M26.9,48.7c-5.9,0-11.2-2.3-15.1-6.1v-6.6c0-2.7,2.2-4.9,4.9-4.9h20.4
	c2.7,0,4.9,2.2,4.9,4.9v6.6C38.1,46.3,32.8,48.7,26.9,48.7z"/>
</svg>
