<?xml version="1.0" encoding="utf-8"?>
<!-- Generator: Adobe Illustrator 21.1.0, SVG Export Plug-In . SVG Version: 6.00 Build 0)  -->
<svg version="1.1" id="Layer_1" xmlns="http://www.w3.org/2000/svg" xmlns:xlink="http://www.w3.org/1999/xlink" x="0px" y="0px"
	 width="53.9px" height="53.9px" viewBox="0 0 53.9 53.9" style="enable-background:new 0 0 53.9 53.9;" xml:space="preserve">
<style type="text/css">
	.st0{fill:#FFFFFF;}
</style>
<g>
	<rect x="25.2" y="16.2" class="st0" width="3.4" height="3.4"/>
	<rect x="25.2" y="29.9" class="st0" width="3.4" height="3.4"/>
	<rect x="25.2" y="23.1" class="st0" width="3.4" height="3.4"/>
	<rect x="18.4" y="29.9" class="st0" width="3.4" height="3.4"/>
	<rect x="18.4" y="23.1" class="st0" width="3.4" height="3.4"/>
	<rect x="18.4" y="16.2" class="st0" width="3.4" height="3.4"/>
	<rect x="32.1" y="16.2" class="st0" width="3.4" height="3.4"/>
	<rect x="32.1" y="29.9" class="st0" width="3.4" height="3.4"/>
	<rect x="32.1" y="23.1" class="st0" width="3.4" height="3.4"/>
	<rect x="25.2" y="36.8" class="st0" width="3.4" height="3.4"/>
	<rect x="18.4" y="36.8" class="st0" width="3.4" height="3.4"/>
	<rect x="32.1" y="36.8" class="st0" width="3.4" height="3.4"/>
	<path class="st0" d="M52.6,25.6c0-0.1,0-0.3,0-0.4c0-0.3,0-0.6-0.1-0.9c0-0.2,0-0.3-0.1-0.5c0-0.3-0.1-0.5-0.1-0.8
		c0-0.2-0.1-0.4-0.1-0.6c0-0.2-0.1-0.5-0.1-0.7c0-0.2-0.1-0.4-0.1-0.6c-0.1-0.2-0.1-0.5-0.2-0.7c0-0.2-0.1-0.4-0.2-0.6
		c-0.1-0.2-0.1-0.5-0.2-0.7c-0.1-0.2-0.1-0.4-0.2-0.6c-0.1-0.2-0.1-0.4-0.2-0.7c-0.1-0.2-0.1-0.4-0.2-0.6c-0.1-0.2-0.2-0.4-0.3-0.6
		c-0.1-0.2-0.2-0.4-0.2-0.5c-0.1-0.2-0.2-0.4-0.3-0.6c-0.1-0.2-0.2-0.4-0.3-0.5c-0.1-0.2-0.2-0.4-0.3-0.6c-0.1-0.2-0.2-0.3-0.3-0.5
		c-0.1-0.2-0.2-0.4-0.3-0.6c-0.1-0.2-0.2-0.3-0.3-0.5c-0.1-0.2-0.2-0.4-0.4-0.6c-0.1-0.2-0.2-0.3-0.3-0.5c-0.1-0.2-0.3-0.4-0.4-0.5
		c-0.1-0.2-0.2-0.3-0.4-0.5c-0.1-0.2-0.3-0.3-0.4-0.5c-0.1-0.2-0.3-0.3-0.4-0.5c-0.1-0.2-0.3-0.3-0.4-0.5c-0.1-0.1-0.3-0.3-0.4-0.4
		c-0.2-0.2-0.3-0.3-0.5-0.5c-0.1-0.1-0.3-0.3-0.4-0.4c-0.2-0.2-0.3-0.3-0.5-0.4c-0.1-0.1-0.3-0.3-0.4-0.4c-0.2-0.1-0.3-0.3-0.5-0.4
		c-0.2-0.1-0.3-0.2-0.5-0.4c-0.2-0.1-0.4-0.3-0.5-0.4c-0.2-0.1-0.3-0.2-0.5-0.3c-0.2-0.1-0.4-0.3-0.6-0.4c-0.2-0.1-0.3-0.2-0.5-0.3
		c-0.2-0.1-0.4-0.2-0.6-0.4c-0.2-0.1-0.3-0.2-0.5-0.3c-0.2-0.1-0.4-0.2-0.6-0.3c-0.2-0.1-0.3-0.2-0.5-0.3c-0.2-0.1-0.4-0.2-0.7-0.3
		c-0.2-0.1-0.3-0.2-0.5-0.2C36.8,3.1,36.5,3,36.3,3c-0.2-0.1-0.3-0.1-0.5-0.2c-0.3-0.1-0.5-0.2-0.8-0.3c-0.1,0-0.3-0.1-0.4-0.1
		c-0.4-0.1-0.8-0.2-1.1-0.3c0,0-0.1,0-0.1,0c-0.4-0.1-0.8-0.2-1.3-0.3c-0.1,0-0.3,0-0.4-0.1c-0.3-0.1-0.6-0.1-0.9-0.2
		c-0.2,0-0.3,0-0.5-0.1c-0.3,0-0.5-0.1-0.8-0.1c-0.2,0-0.4,0-0.6,0c-0.3,0-0.5,0-0.8-0.1c-0.2,0-0.4,0-0.6,0c-0.2,0-0.4,0-0.6,0
		c0,0-0.1,0-0.1,0c-0.2,0-0.4,0-0.6,0c-0.2,0-0.5,0-0.7,0c-0.1,0-0.1,0-0.2,0c-0.2,0-0.4,0-0.6,0.1c-0.1,0-0.3,0-0.4,0
		c-0.3,0-0.6,0.1-0.8,0.1c-0.1,0-0.3,0-0.4,0.1c-0.2,0-0.4,0.1-0.7,0.1C12.2,3.4,4.2,11.2,1.9,21.1c0,0,0,0,0,0
		c-0.1,0.3-0.2,0.7-0.2,1.1c0,0.1,0,0.2-0.1,0.3c0,0.3-0.1,0.5-0.1,0.8c0,0.2,0,0.4-0.1,0.6c0,0.2-0.1,0.4-0.1,0.6
		c0,0.2,0,0.5-0.1,0.7c0,0.2,0,0.4,0,0.5c0,0,0,0.1,0,0.1c0,0.1,0,0.2,0,0.3c0,0.2,0,0.5,0,0.7c0,0.1,0,0.2,0,0.3c0,0.3,0,0.5,0,0.8
		c0,0.3,0,0.6,0,0.9c0,0.3,0,0.5,0.1,0.8c0,0.3,0.1,0.6,0.1,0.8c0,0.2,0.1,0.5,0.1,0.7c0,0.3,0.1,0.6,0.2,0.8c0,0.2,0.1,0.5,0.2,0.7
		C1.9,33,2,33.3,2.1,33.6c0.1,0.2,0.1,0.5,0.2,0.7c0.1,0.3,0.2,0.5,0.3,0.8c0.1,0.2,0.2,0.5,0.2,0.7C2.8,36,2.9,36.3,3,36.5
		c0.1,0.2,0.2,0.4,0.3,0.7c0.1,0.3,0.2,0.5,0.3,0.7c0.1,0.2,0.2,0.4,0.3,0.6c0.1,0.2,0.3,0.5,0.4,0.7c0.1,0.2,0.2,0.4,0.3,0.6
		c0.1,0.2,0.3,0.5,0.4,0.7c0.1,0.2,0.2,0.4,0.4,0.6c0.2,0.2,0.3,0.5,0.5,0.7c0.1,0.2,0.3,0.4,0.4,0.6c0.2,0.2,0.3,0.4,0.5,0.7
		c0.1,0.2,0.3,0.4,0.4,0.5c0.2,0.2,0.4,0.4,0.6,0.6c0.1,0.2,0.3,0.3,0.4,0.5C8.6,45,8.8,45.2,9,45.4c0.1,0.1,0.3,0.3,0.4,0.4
		c0.2,0.2,0.5,0.5,0.8,0.7c0.1,0.1,0.2,0.2,0.4,0.3c0.4,0.3,0.8,0.6,1.2,0.9c0.5,0.4,1,0.7,1.5,1c3.9,2.5,8.6,3.9,13.6,3.9
		c4.3,0,8.4-1.1,12-3l0,0c0,0,0,0,0,0c0.5-0.3,1.1-0.6,1.6-0.9c0.5-0.3,1-0.7,1.5-1c6.4-4.7,10.6-12.3,10.6-20.8
		C52.7,26.5,52.7,26,52.6,25.6z M26.9,48.2c-4.3,0-8.5-1.3-12-3.7V15.7c0-1.7,1.4-3,3-3h18c1.7,0,3,1.4,3,3v28.7
		C35.4,46.9,31.3,48.2,26.9,48.2z"/>
</g>
</svg>
