<?xml version="1.0" encoding="utf-8"?>
<!-- Generator: Adobe Illustrator 21.1.0, SVG Export Plug-In . SVG Version: 6.00 Build 0)  -->
<svg version="1.1" id="Layer_1" xmlns="http://www.w3.org/2000/svg" xmlns:xlink="http://www.w3.org/1999/xlink" x="0px" y="0px"
	 width="69.9px" height="69.9px" viewBox="0 0 69.9 69.9" style="enable-background:new 0 0 69.9 69.9;" xml:space="preserve">
<style type="text/css">
	.st0{fill:#FFFFFF;}
</style>
<g>
	<path class="st0" d="M68.5,61.9L53,46.4c7.8-11.1,6.8-26.5-3.1-36.4c-5.4-5.4-12.5-8.3-20.1-8.3c-7.6,0-14.7,3-20.1,8.3
		C-1.3,21-1.3,39,9.8,50.1c5.4,5.4,12.5,8.3,20.1,8.3c6.1,0,11.9-2,16.8-5.5L62,68.3L68.5,61.9z M29.9,50c-5.3,0-10.4-2.1-14.1-5.9
		c-7.8-7.8-7.8-20.5,0-28.3c3.8-3.8,8.8-5.9,14.1-5.9c5.3,0,10.4,2.1,14.1,5.9c7.8,7.8,7.8,20.5,0,28.3C40.2,47.9,35.2,50,29.9,50z"
		/>
</g>
</svg>
