<?xml version="1.0" encoding="utf-8"?>
<!-- Generator: Adobe Illustrator 21.1.0, SVG Export Plug-In . SVG Version: 6.00 Build 0)  -->
<svg version="1.1" id="Layer_1" xmlns="http://www.w3.org/2000/svg" xmlns:xlink="http://www.w3.org/1999/xlink" x="0px" y="0px"
	 width="105.1px" height="104.2px" viewBox="0 0 105.1 104.2" style="enable-background:new 0 0 105.1 104.2;" xml:space="preserve"
	>
<style type="text/css">
	.st0{fill:#CCCCCB;}
</style>
<path class="st0" d="M87,32.1L102.1,17l-13.9-0.6L87.6,2.5L72.5,17.6l0.4,8.4l-3.8,3.8c-15.9-12.9-39.4-12-54.2,2.8
	c-15.8,15.8-15.8,41.5,0,57.3c7.7,7.7,17.8,11.9,28.7,11.9s21-4.2,28.7-11.9C87,75,87.9,51.4,74.8,35.5l3.8-3.8L87,32.1z M66.2,83.9
	c-6.1,6.1-14.1,9.4-22.7,9.4S26.9,90,20.8,83.9c-12.5-12.5-12.5-32.9,0-45.4c6.3-6.3,14.5-9.4,22.7-9.4c6.9,0,13.8,2.2,19.6,6.6
	l-6.6,6.6c-8.9-6.1-21.2-5.3-29.2,2.7c-8.9,8.9-8.9,23.5,0,32.4c4.5,4.5,10.3,6.7,16.2,6.7c5.9,0,11.7-2.2,16.2-6.7
	c8-8,8.8-20.4,2.5-29.4l6.6-6.6C78.7,54.1,77.8,72.4,66.2,83.9z M59.5,61.2c0,4.3-1.7,8.3-4.7,11.3c-3,3-7,4.7-11.3,4.7
	c-4.3,0-8.3-1.7-11.3-4.7c-3-3-4.7-7-4.7-11.3c0-4.3,1.7-8.3,4.7-11.3c3-3,7-4.7,11.3-4.7c2.9,0,5.6,0.8,8,2.1l-5.6,5.6
	c-2.9-0.9-6.2-0.1-8.6,2.2c-3.4,3.4-3.4,8.9,0,12.3c3.4,3.4,8.9,3.4,12.3,0c2.4-2.4,3.1-5.8,2.1-8.8l5.5-5.5
	C58.7,55.5,59.5,58.3,59.5,61.2z"/>
</svg>
