<?xml version="1.0" encoding="utf-8"?>
<!-- Generator: Adobe Illustrator 21.1.0, SVG Export Plug-In . SVG Version: 6.00 Build 0)  -->
<svg version="1.1" id="Layer_1" xmlns="http://www.w3.org/2000/svg" xmlns:xlink="http://www.w3.org/1999/xlink" x="0px" y="0px"
	 width="53.9px" height="53.9px" viewBox="0 0 53.9 53.9" style="enable-background:new 0 0 53.9 53.9;" xml:space="preserve">
<style type="text/css">
	.st0{fill:#FFFFFF;}
</style>
<g>
	<path class="st0" d="M26.9,29.7c-1.5,0-2.7,1.2-2.7,2.7c0,1.1,0.6,2,1.6,2.5v3.5h2.3v-3.5c0.9-0.4,1.6-1.4,1.6-2.5
		C29.7,31,28.4,29.7,26.9,29.7z"/>
	<path class="st0" d="M26.9,1.2C12.7,1.2,1.2,12.7,1.2,26.9s11.5,25.8,25.8,25.8s25.8-11.5,25.8-25.8S41.2,1.2,26.9,1.2z M39.4,41.7
		c0,0.7-0.6,1.2-1.2,1.2H15.7c-0.7,0-1.2-0.6-1.2-1.2V27.2c0-0.7,0.6-1.2,1.2-1.2h1.6v-7c0-2.7,1-5.2,2.7-7.1c1.7-1.8,4.1-3,6.8-3
		c2.7,0,5.1,1.2,6.8,3c1.7,1.8,2.7,4.3,2.7,7.1v3.2H32V19c0-1.6-0.6-3-1.5-4c-0.9-1-2.2-1.6-3.5-1.6c-1.3,0-2.6,0.6-3.5,1.6
		c-0.9,1-1.5,2.4-1.5,4v7h2.5H32h4.5h1.6c0.7,0,1.2,0.6,1.2,1.2V41.7z"/>
</g>
</svg>
