<?xml version="1.0" encoding="utf-8"?>
<!-- Generator: Adobe Illustrator 21.1.0, SVG Export Plug-In . SVG Version: 6.00 Build 0)  -->
<svg version="1.1" id="Layer_1" xmlns="http://www.w3.org/2000/svg" xmlns:xlink="http://www.w3.org/1999/xlink" x="0px" y="0px"
	 width="69.9px" height="69.9px" viewBox="0 0 69.9 69.9" style="enable-background:new 0 0 69.9 69.9;" xml:space="preserve">
<style type="text/css">
	.st0{fill:#03864F;}
	.st1{fill:#FFFFFF;}
</style>
<g>
	<rect x="0.3" y="0.3" class="st0" width="69.4" height="69.4"/>
	<path class="st1" d="M57.5,18H40.4v-7l-27.9,5.1l0.1,37.7L40.4,59v-7.2h17.2V18z M32.4,43.5l-3.5-0.2l-2.6-6.5L24,42.9l-3.4-0.2
		l3.7-7.8l-3.7-7.8l3.4-0.2l2.4,6.2l2.6-6.5l3.5-0.2l-4.3,8.6L32.4,43.5z M45.1,48.5h-4.7v-3.9h4.7V48.5z M45.1,42.7h-4.7v-3.9h4.7
		V42.7z M45.1,36.9h-4.7V33h4.7V36.9z M45.1,31.1h-4.7v-3.9h4.7V31.1z M45.1,25.2h-4.7v-3.9h4.7V25.2z M54.1,48.5h-7.3v-3.9h7.3
		V48.5z M54.1,42.7h-7.3v-3.9h7.3V42.7z M54.1,36.9h-7.3V33h7.3V36.9z M54.1,31.1h-7.3v-3.9h7.3V31.1z M54.1,25.2h-7.3v-3.9h7.3
		V25.2z"/>
</g>
</svg>
