<?xml version="1.0" encoding="utf-8"?>
<!-- Generator: Adobe Illustrator 21.1.0, SVG Export Plug-In . SVG Version: 6.00 Build 0)  -->
<svg version="1.1" id="Layer_1" xmlns="http://www.w3.org/2000/svg" xmlns:xlink="http://www.w3.org/1999/xlink" x="0px" y="0px"
	 width="69.9px" height="69.9px" viewBox="0 0 69.9 69.9" style="enable-background:new 0 0 69.9 69.9;" xml:space="preserve">
<style type="text/css">
	.st0{fill:#FFFFFF;}
</style>
<g>
	<path class="st0" d="M52,0.9H18C8.5,0.9,0.9,8.5,0.9,18v34c0,9.4,7.7,17.1,17.1,17.1h34c9.4,0,17.1-7.7,17.1-17.1V18
		C69.1,8.5,61.4,0.9,52,0.9z M52,33.3c-1.3,15.6-25.2,25.9-39,12.1c5,3.5,12.7,2.7,16.8-3.1c-2.8,0.9-5.3-1.6-2-3.6
		c-3.1,0.8-5.1-0.6-6-1.9c0.6-0.9,1.4-1.4,2.9-1.7c-3.6-0.3-5.1-1.7-5.8-3.7c0.9-0.4,2.1-0.8,2.7-0.8c-3.2-1.1-4.7-3.3-4.8-5.1
		c5.7,1.1,9.3,2.2,12.4,3.3c1.1,0.4,2.4,1.2,3.9,2.2c1-4.6,2.3-9.3,5.4-12.1c0,0.5-0.2,1-0.5,1.5c0.8-1,2-1.9,3.3-2.2
		c0,1-1.3,1.8-2.1,2.2c0.6-0.3,3.8-2.4,4.3-1.5c0.6,0.9-2.1,1.8-2.6,2c-0.3,0.2-0.7,0.4-1,0.6c4.2-1.1,8.9,1.8,10.8,6
		c0.1,0.3,0.3,0.6,0.4,1c1.7,0.3,4.4-0.7,5.3-1.4c-0.4,1.7-2,3.1-4.5,3.7c1.3,0.3,3.7,0.2,5.2-0.3C56.2,31.6,54.7,32.9,52,33.3z"/>
</g>
</svg>
