<?xml version="1.0" encoding="utf-8"?>
<!-- Generator: Adobe Illustrator 21.1.0, SVG Export Plug-In . SVG Version: 6.00 Build 0)  -->
<svg version="1.1" id="Layer_1" xmlns="http://www.w3.org/2000/svg" xmlns:xlink="http://www.w3.org/1999/xlink" x="0px" y="0px"
	 width="69.9px" height="69.9px" viewBox="0 0 69.9 69.9" style="enable-background:new 0 0 69.9 69.9;" xml:space="preserve">
<style type="text/css">
	.st0{fill:#157CBF;}
	.st1{fill:#FFFFFF;}
</style>
<g>
	<rect x="0.3" y="0.3" class="st0" width="69.4" height="69.4"/>
	<path class="st1" d="M57.5,18H40.4v-7l-27.9,5.1l0.1,37.7L40.4,59v-7.2h17.2V18z M30.6,43.8l-2.8-0.3l-2.2-11.8l0,0l-2.2,11.3
		l-2.9-0.3l-3.4-15.7l2.8-0.3l2,10.9l0,0l2.2-11.3l2.7-0.3l2.2,11.9l0,0l2.1-12.4l2.8-0.3L30.6,43.8z M54.2,48.6H40.4v-2.2h13.8
		V48.6z M54.2,43.6H40.4v-2.2h13.8V43.6z M54.2,38.6H40.4v-2.2h13.8V38.6z M54.2,33.6H40.4v-2.2h13.8V33.6z M54.2,28.6H40.4v-2.2
		h13.8V28.6z M54.2,23.6H40.4v-2.2h13.8V23.6z"/>
</g>
</svg>
