<?xml version="1.0" encoding="utf-8"?>
<!-- Generator: Adobe Illustrator 21.1.0, SVG Export Plug-In . SVG Version: 6.00 Build 0)  -->
<svg version="1.1" id="Layer_1" xmlns="http://www.w3.org/2000/svg" xmlns:xlink="http://www.w3.org/1999/xlink" x="0px" y="0px"
	 width="53.9px" height="53.9px" viewBox="0 0 53.9 53.9" style="enable-background:new 0 0 53.9 53.9;" xml:space="preserve">
<style type="text/css">
	.st0{fill:#FFFFFF;}
</style>
<g>
	<path class="st0" d="M26.9,1.2C12.7,1.2,1.2,12.7,1.2,26.9s11.5,25.8,25.8,25.8s25.8-11.5,25.8-25.8S41.2,1.2,26.9,1.2z M13.9,17.1
		H40c0.9,0,1.7,0.7,1.9,1.6l-13.7,9.8c-0.7,0.5-1.6,0.5-2.3,0L12,18.7C12.2,17.8,13,17.1,13.9,17.1z M41.9,34.9c0,1-0.8,1.9-1.9,1.9
		H13.9c-1,0-1.9-0.8-1.9-1.9V21.1l12.6,9c0.7,0.5,1.5,0.7,2.3,0.7c0.8,0,1.6-0.2,2.3-0.7l12.6-9V34.9z"/>
</g>
</svg>
