<?xml version="1.0" encoding="utf-8"?>
<!-- Generator: Adobe Illustrator 21.1.0, SVG Export Plug-In . SVG Version: 6.00 Build 0)  -->
<svg version="1.1" id="Layer_1" xmlns="http://www.w3.org/2000/svg" xmlns:xlink="http://www.w3.org/1999/xlink" x="0px" y="0px"
	 width="69.9px" height="69.9px" viewBox="0 0 69.9 69.9" style="enable-background:new 0 0 69.9 69.9;" xml:space="preserve">
<style type="text/css">
	.st0{fill:#ED2224;}
	.st1{fill-rule:evenodd;clip-rule:evenodd;fill:#FFFFFF;}
</style>
<rect x="0.3" y="0.3" class="st0" width="69.4" height="69.4"/>
<g>
	<g>
		<path class="st1" d="M45.7,39.9c0,0-10.8-8.6-15.1-15.9c0,0,2.1-14.7-5.6-12.7c-7.6,2,1.6,13.5,1.6,13.5s-1.6,12.8-6,21.8
			c0,0-13.6,4-8.3,10.7c4.4,5.7,11.1-8.3,11.1-8.3s9-4.1,21.4-5.6c0,0,10.8,9.1,13.5,2.4C60.9,39.5,50.2,39.5,45.7,39.9z M14.7,55
			c-1.2-1.3,3.6-3.6,3.6-3.6S15.9,56.4,14.7,55z M26.3,14.5c1.6-0.3,1.2,4.8,1.2,4.8S24.7,14.9,26.3,14.5z M25.1,44.7
			c0,0,3.6-8.8,4.4-16.7c0,0,5.7,8,11.9,12.7C41.3,40.7,30.7,42,25.1,44.7z M55.2,44.7c-0.5,1.2-4.8-1.6-4.8-1.6
			S55.7,43.5,55.2,44.7z"/>
	</g>
</g>
</svg>
