<?xml version="1.0" encoding="utf-8"?>
<!-- Generator: Adobe Illustrator 21.1.0, SVG Export Plug-In . SVG Version: 6.00 Build 0)  -->
<svg version="1.1" id="Layer_1" xmlns="http://www.w3.org/2000/svg" xmlns:xlink="http://www.w3.org/1999/xlink" x="0px" y="0px"
	 width="276px" height="135.1px" viewBox="0 0 276 135.1" style="enable-background:new 0 0 276 135.1;" xml:space="preserve">
<style type="text/css">
	.st0{fill:#FFFFFF;}
</style>
<path class="st0" d="M273.6,62.7c0-0.2,0-0.4,0-0.6c0-0.5-0.1-0.9-0.1-1.4c0-0.2-0.1-0.4-0.1-0.7c-0.1-0.4-0.1-0.9-0.2-1.3
	c0-0.2-0.1-0.5-0.1-0.7c-0.1-0.4-0.1-0.8-0.2-1.2c0-0.2-0.1-0.4-0.2-0.7c-0.1-0.4-0.2-0.8-0.3-1.2c-0.1-0.2-0.1-0.4-0.2-0.6
	c-0.1-0.4-0.2-0.8-0.4-1.3c-0.1-0.2-0.1-0.4-0.2-0.6c-0.1-0.4-0.3-0.9-0.5-1.3c-0.1-0.2-0.1-0.3-0.2-0.5c-0.2-0.4-0.3-0.9-0.5-1.3
	c-0.1-0.1-0.1-0.3-0.2-0.4c-0.2-0.4-0.4-0.9-0.6-1.3c-0.1-0.1-0.1-0.3-0.2-0.4c-0.2-0.4-0.5-0.9-0.7-1.3c-0.1-0.1-0.1-0.2-0.2-0.3
	c-0.3-0.5-0.5-0.9-0.8-1.3c-0.1-0.1-0.1-0.2-0.2-0.3c-0.3-0.5-0.6-0.9-0.9-1.3c0-0.1-0.1-0.1-0.1-0.2c-0.3-0.5-0.7-0.9-1-1.4
	c0,0-0.1-0.1-0.1-0.1c-0.4-0.5-0.7-0.9-1.1-1.4c0,0-0.1-0.1-0.1-0.1c-0.4-0.5-0.8-0.9-1.2-1.3c0,0,0,0,0,0c-0.4-0.5-0.9-0.9-1.3-1.3
	l0,0v0c-0.4-0.4-0.8-0.8-1.3-1.1c0,0,0,0,0,0c-0.4-0.4-0.9-0.7-1.3-1.1c0,0,0,0,0,0c0,0,0,0,0,0c-0.5-0.4-0.9-0.7-1.4-1.1
	c0,0,0,0,0,0c-0.5-0.3-1-0.7-1.5-1c0,0,0,0,0,0c0,0,0,0,0,0c-1.6-1-3.3-1.9-5-2.7c0,0,0,0,0,0c-1.8-0.8-3.6-1.4-5.5-1.9c0,0,0,0,0,0
	l0,0c-1.5-0.4-3.1-0.7-4.7-1c-0.1,0-0.3,0-0.4-0.1c-0.7-0.1-1.3-0.1-2-0.2c-0.2,0-0.3,0-0.5,0c-0.8,0-1.6-0.1-2.3-0.1c0,0,0,0,0,0
	c0,0,0,0,0,0c0,0,0,0,0,0v0c-8.2,0-15.7,2.6-22,7l-1.2,0.9c-2.4-4.7-7.2-7.9-12.8-7.9h-50.4v0c-10.7,0.2-20.2,4.8-27,12.1
	c0.7,0.9,1.4,1.8,2.1,2.8c1.9,2.8,3.5,5.9,4.7,9.1c0.5,1.5,1,2.9,1.3,4.5c3.8-7.8,12.1-13,21.4-12.2c10.4,0.8,19,9,20.1,19.4
	c1.5,13.2-8.9,24.5-21.8,24.5c-8.6,0-16.1-5-19.7-12.3c-1.4-2.9-2.2-6.2-2.2-9.7c0,0,0,0,0,0c0,0,0,0,0,0c0-3.5-0.5-6.8-1.3-10
	c-1-3.8-2.6-7.3-4.7-10.5c-0.6-1-1.3-2-2.1-2.9c-0.7-0.9-1.5-1.8-2.3-2.6c-7.6-8.1-18.6-12.9-30.7-12c-18.7,1.4-33.8,16.5-35.1,35.2
	c-0.7,9.2,2,17.9,6.9,24.8H41c-1.7,0-3.1-1.4-3.1-3.1V16.3C37.9,8.4,31.5,2,23.6,2H11c-4.8,0-8.7,3.9-8.7,8.7c0,4.8,3.9,8.7,8.7,8.7
	v0h5.7c2,0,3.1,1,3.1,3.1v66c0,7.9,6.4,14.3,14.3,14.3h55.7c11,0,20.8-4.7,27.8-12.1c-0.7-0.9-1.4-1.8-2.1-2.8
	c-1.9-2.8-3.5-5.9-4.7-9.1c-0.5-1.5-1-2.9-1.3-4.5c-3.8,7.8-12.1,13-21.4,12.2c-10.4-0.8-19-9-20.1-19.4
	C66.5,54,76.9,42.7,89.8,42.7c8.6,0,16.1,5,19.7,12.3c1.4,2.9,2.2,6.2,2.2,9.7c0,0,0,0,0,0c0,0,0,0,0,0c0,3.5,0.5,6.8,1.3,10
	c1,3.8,2.6,7.3,4.7,10.5c0.6,1,1.3,2,2.1,2.9c0.7,0.9,1.5,1.8,2.3,2.6c7.6,8.1,18.6,12.9,30.7,12c18.7-1.4,33.8-16.5,35.1-35.2
	c0.7-9.2-2-17.9-6.9-24.8h11.8c1.6,0,2.6,0.7,3,2v74.1c0,7.9,6.4,14.3,14.3,14.3h12.6v0c4.8,0,8.7-3.9,8.7-8.7s-3.9-8.7-8.7-8.7H217
	c-2,0-3.1-1-3.1-3.1v-0.2v-15v-0.1v0c0-0.3,0-0.7,0-1.4c0.4,0.2,0.7,0.5,1.1,0.7c0.1,0.1,0.2,0.1,0.3,0.2c0.4,0.3,0.9,0.5,1.3,0.8
	c0.1,0.1,0.2,0.1,0.3,0.2c0.4,0.2,0.9,0.5,1.3,0.7c0.1,0.1,0.3,0.1,0.4,0.2c0.4,0.2,0.9,0.4,1.3,0.6c0.1,0.1,0.3,0.1,0.4,0.2
	c0.4,0.2,0.9,0.4,1.3,0.5c0.2,0.1,0.3,0.1,0.5,0.2c0.4,0.2,0.8,0.3,1.3,0.5c0.2,0.1,0.4,0.1,0.6,0.2c0.4,0.1,0.8,0.3,1.3,0.4
	c0.2,0.1,0.4,0.1,0.6,0.2c0.4,0.1,0.8,0.2,1.3,0.3c0.2,0,0.4,0.1,0.6,0.1c0.4,0.1,0.8,0.2,1.3,0.2c0.2,0,0.4,0.1,0.7,0.1
	c0.4,0.1,0.9,0.1,1.3,0.2c0.2,0,0.4,0.1,0.7,0.1c0.5,0,0.9,0.1,1.4,0.1c0.2,0,0.4,0,0.6,0c0.7,0,1.3,0.1,2,0.1
	c10.5,0,20-4.3,26.9-11.2c6.9-6.9,11.2-16.4,11.2-26.9C273.7,64,273.7,63.4,273.6,62.7z M235.6,86.7c-0.5,0-1,0-1.4-0.1
	c-0.1,0-0.3,0-0.4,0c-0.4,0-0.8-0.1-1.2-0.1c-0.1,0-0.2,0-0.2,0c-0.5-0.1-0.9-0.2-1.4-0.2c-0.1,0-0.2,0-0.3-0.1
	c-0.4-0.1-0.7-0.2-1.1-0.3c-0.1,0-0.2-0.1-0.3-0.1c-0.4-0.1-0.9-0.3-1.3-0.4c-0.1,0-0.1,0-0.2-0.1c-0.4-0.1-0.8-0.3-1.1-0.5
	c-0.1,0-0.2-0.1-0.3-0.1c-0.8-0.4-1.7-0.8-2.4-1.3c-0.1,0-0.2-0.1-0.2-0.1c-0.4-0.2-0.7-0.5-1.1-0.7c0,0-0.1,0-0.1-0.1
	c-0.4-0.3-0.8-0.6-1.1-0.9c0,0-0.1-0.1-0.1-0.1c-0.3-0.3-0.6-0.6-0.9-0.9c0,0-0.1-0.1-0.1-0.1c-0.7-0.7-1.3-1.4-1.9-2.1
	c0,0-0.1-0.1-0.1-0.1c-0.6-0.8-1.1-1.5-1.6-2.4c0,0-0.1-0.1-0.1-0.1c-0.2-0.4-0.5-0.8-0.7-1.3v0c-1-2.1-1.7-4.4-2.1-6.8
	c0-1.8,0-3.7,0-5.5c0-0.1,0-0.2,0-0.3c0-0.2,0.1-0.4,0.1-0.5c0-0.3,0.1-0.6,0.2-0.9c0-0.2,0.1-0.3,0.1-0.5c0.1-0.4,0.2-0.7,0.3-1.1
	c0-0.2,0.1-0.3,0.1-0.5c0.1-0.4,0.2-0.7,0.4-1.1c0.1-0.2,0.1-0.4,0.2-0.6c0.1-0.2,0.2-0.5,0.3-0.7c0.1-0.2,0.2-0.4,0.3-0.6
	c0.1-0.2,0.2-0.4,0.3-0.6c0.1-0.3,0.3-0.5,0.4-0.8c0.1-0.2,0.2-0.4,0.3-0.5c0.1-0.2,0.3-0.5,0.5-0.7c0.1-0.2,0.2-0.4,0.4-0.5
	c0.2-0.2,0.3-0.5,0.5-0.7c0.1-0.2,0.3-0.4,0.4-0.5c0.2-0.2,0.3-0.4,0.5-0.6c0.2-0.2,0.3-0.4,0.5-0.5c0.2-0.2,0.3-0.4,0.5-0.6
	c0.2-0.2,0.4-0.4,0.6-0.5c0.2-0.2,0.4-0.3,0.5-0.5c0.2-0.2,0.4-0.3,0.6-0.5c0.2-0.1,0.4-0.3,0.5-0.4c0.2-0.2,0.4-0.3,0.7-0.5
	c0.2-0.1,0.4-0.3,0.5-0.4c0.2-0.2,0.5-0.3,0.7-0.5c0.2-0.1,0.4-0.2,0.5-0.3c0.3-0.1,0.5-0.3,0.8-0.4c3-1.5,6.4-2.4,10-2.4
	c0,0,0,0,0,0h0c0,0,0,0,0,0c0.4,0,0.8,0,1.2,0c0.1,0,0.2,0,0.4,0c0.3,0,0.6,0,0.8,0.1c0.1,0,0.3,0,0.4,0.1c0.3,0,0.5,0.1,0.8,0.1
	c0.1,0,0.3,0,0.4,0.1c0.3,0.1,0.5,0.1,0.8,0.2c0.1,0,0.2,0.1,0.3,0.1c0.3,0.1,0.6,0.2,0.9,0.2c0.1,0,0.2,0,0.2,0.1
	c0.4,0.1,0.7,0.2,1.1,0.4c0,0,0,0,0,0c0.8,0.3,1.5,0.6,2.3,1c0.4,0.2,0.8,0.4,1.3,0.7c0,0,0.1,0.1,0.1,0.1c0.8,0.5,1.6,1,2.4,1.6
	c0,0,0.1,0.1,0.1,0.1c0.7,0.6,1.5,1.2,2.1,1.9c0,0,0.1,0.1,0.1,0.1c0.3,0.3,0.6,0.6,0.9,0.9c0,0,0.1,0.1,0.1,0.1
	c0.3,0.4,0.6,0.7,0.9,1.1c0,0,0,0.1,0.1,0.1c0.3,0.3,0.5,0.7,0.7,1.1c0,0.1,0.1,0.2,0.1,0.2c0.5,0.8,0.9,1.6,1.3,2.4
	c0,0.1,0.1,0.2,0.1,0.3c0.2,0.4,0.3,0.7,0.5,1.1c0,0.1,0,0.1,0.1,0.2c0.2,0.4,0.3,0.9,0.4,1.3c0,0.1,0.1,0.2,0.1,0.3
	c0.1,0.4,0.2,0.7,0.3,1.1c0,0.1,0.1,0.2,0.1,0.3c0.1,0.5,0.2,0.9,0.2,1.4c0,0.1,0,0.2,0,0.2c0.1,0.4,0.1,0.8,0.1,1.2
	c0,0.1,0,0.3,0,0.4c0,0.5,0.1,1,0.1,1.4C257.5,76.8,247.7,86.7,235.6,86.7z"/>
</svg>
