<?xml version="1.0" encoding="utf-8"?>
<!-- Generator: Adobe Illustrator 21.1.0, SVG Export Plug-In . SVG Version: 6.00 Build 0)  -->
<svg version="1.1" id="Layer_1" xmlns="http://www.w3.org/2000/svg" xmlns:xlink="http://www.w3.org/1999/xlink" x="0px" y="0px"
	 width="154.2px" height="26.7px" viewBox="0 0 154.2 26.7" style="enable-background:new 0 0 154.2 26.7;" xml:space="preserve">
<style type="text/css">
	.st0{fill:#010101;}
</style>
<g>
	<g>
		<polygon class="st0" points="14.3,20.8 7,24.6 8.4,16.6 2.6,10.8 10.7,9.7 14.3,2.3 17.9,9.7 26,10.8 20.2,16.6 21.5,24.6 		"/>
		<path class="st0" d="M14.3,3.8l2.9,5.8l0.3,0.6l0.7,0.1l6.4,0.9l-4.6,4.5l-0.5,0.5l0.1,0.7l1.1,6.4l-5.7-3l-0.6-0.3l-0.6,0.3
			l-5.7,3L9,17l0.1-0.7l-0.5-0.5L4,11.3l6.4-0.9l0.7-0.1l0.3-0.6L14.3,3.8 M14.3,0.8l-4.1,8.3l-9.1,1.3l6.6,6.4l-1.6,9.1l8.1-4.3
			l8.1,4.3l-1.6-9.1l6.6-6.4l-9.1-1.3L14.3,0.8L14.3,0.8z"/>
	</g>
	<g>
		<polygon class="st0" points="45.7,20.8 38.4,24.6 39.8,16.6 34,10.8 42.1,9.7 45.7,2.3 49.3,9.7 57.4,10.8 51.6,16.6 52.9,24.6 		
			"/>
		<g>
			<path class="st0" d="M45.7,3.8l2.9,5.8l0.3,0.6l0.7,0.1l6.4,0.9l-4.6,4.5l-0.5,0.5L51,17l1.1,6.4l-5.7-3l-0.6-0.3l-0.6,0.3
				l-5.7,3l1.1-6.4l0.1-0.7L40,15.8l-4.6-4.5l6.4-0.9l0.7-0.1l0.3-0.6L45.7,3.8 M45.7,0.8l-4.1,8.3l-9.1,1.3l6.6,6.4l-1.6,9.1
				l8.1-4.3l8.1,4.3l-1.6-9.1l6.6-6.4l-9.1-1.3L45.7,0.8L45.7,0.8z"/>
		</g>
	</g>
	<g>
		<polygon class="st0" points="71.2,16.6 65.3,10.8 73.5,9.7 77.1,2.3 80.7,9.7 88.8,10.8 83,16.6 84.3,24.6 77.1,20.8 69.8,24.6 		
			"/>
		<g>
			<path class="st0" d="M77.1,3.8l2.9,5.8l0.3,0.6l0.7,0.1l6.4,0.9l-4.6,4.5l-0.5,0.5l0.1,0.7l1.1,6.4l-5.7-3l-0.6-0.3l-0.6,0.3
				l-5.7,3l1.1-6.4l0.1-0.7l-0.5-0.5l-4.6-4.5l6.4-0.9l0.7-0.1l0.3-0.6L77.1,3.8 M77.1,0.8L73,9.1l-9.1,1.3l6.6,6.4l-1.6,9.1
				l8.1-4.3l8.1,4.3l-1.6-9.1l6.6-6.4l-9.1-1.3L77.1,0.8L77.1,0.8z"/>
		</g>
	</g>
	<g>
		<polygon class="st0" points="102.6,16.6 96.7,10.8 104.9,9.7 108.5,2.3 112.1,9.7 120.2,10.8 114.3,16.6 115.7,24.6 108.5,20.8 
			101.2,24.6 		"/>
		<g>
			<path class="st0" d="M108.5,3.8l2.9,5.8l0.3,0.6l0.7,0.1l6.4,0.9l-4.6,4.5l-0.5,0.5l0.1,0.7l1.1,6.4l-5.7-3l-0.6-0.3l-0.6,0.3
				l-5.7,3l1.1-6.4l0.1-0.7l-0.5-0.5l-4.6-4.5l6.4-0.9l0.7-0.1l0.3-0.6L108.5,3.8 M108.5,0.8l-4.1,8.3l-9.1,1.3l6.6,6.4l-1.6,9.1
				l8.1-4.3l8.1,4.3l-1.6-9.1l6.6-6.4l-9.1-1.3L108.5,0.8L108.5,0.8z"/>
		</g>
	</g>
	<g>
		<path class="st0" d="M139.9,5.7L142,10l0.5,1l1.1,0.2l4.8,0.7l-3.4,3.4l-0.8,0.8l0.2,1.1l0.8,4.7l-4.3-2.2l-1-0.5l-1,0.5l-4.3,2.2
			l0.8-4.7l0.2-1.1l-0.8-0.8l-3.4-3.4l4.8-0.7l1.1-0.2l0.5-1L139.9,5.7 M139.9,0.8l-4.1,8.3l-9.1,1.3l6.6,6.4l-1.6,9.1l8.1-4.3
			l8.1,4.3l-1.6-9.1l6.6-6.4l-9.1-1.3L139.9,0.8L139.9,0.8z"/>
	</g>
</g>
</svg>
