<?xml version="1.0" encoding="utf-8"?>
<!-- Generator: Adobe Illustrator 21.1.0, SVG Export Plug-In . SVG Version: 6.00 Build 0)  -->
<svg version="1.1" id="Layer_1" xmlns="http://www.w3.org/2000/svg" xmlns:xlink="http://www.w3.org/1999/xlink" x="0px" y="0px"
	 width="59.2px" height="59.5px" viewBox="0 0 59.2 59.5" style="enable-background:new 0 0 59.2 59.5;" xml:space="preserve">
<style type="text/css">
	.st0{fill:#777777;}
	.st1{fill:#FFFFFF;}
</style>
<g>
	<polygon class="st0" points="59.2,58.9 0.2,0 59.2,0 	"/>
	<g>
		<path class="st1" d="M28.5,12.7l1.4,1.4c1.3,1.3,1.3,2.8,0.1,4.1c-1.3,1.3-2.8,1.2-4.1-0.1l-1.4-1.4L28.5,12.7z M26.7,17.3
			c0.7,0.7,1.5,0.7,2.3-0.1c0.8-0.8,0.7-1.6,0.1-2.3l-0.4-0.4l-2.3,2.3L26.7,17.3z"/>
		<path class="st1" d="M32.7,16.9l1.4,1.4c0.4,0.4,0.6,0.6,0.7,0.9c0.3,0.6,0.2,1.3-0.4,1.9c-0.4,0.4-1.1,0.7-1.7,0.5l0,0
			c0,0,0,0.1-0.1,0.4l-0.6,2.2l-1.1-1.1l0.6-2.1L31,20.6l-1.4,1.4l-1-1L32.7,16.9z M32.3,20.1c0.3,0.3,0.7,0.3,1,0
			c0.3-0.3,0.4-0.6-0.1-1.1l-0.3-0.3l-1,1L32.3,20.1z"/>
		<path class="st1" d="M35.4,26l-1.3-1.3L33,25.3l-1-1l5.4-2.7l1,1l-2.7,5.4l-1-1L35.4,26z M37,23.1c0,0-0.5,0.4-0.9,0.5l-1,0.6
			l0.8,0.8l0.6-1C36.7,23.6,37,23.1,37,23.1L37,23.1z"/>
		<path class="st1" d="M40.3,24.5l2.5,2.5l-0.8,0.8l-1.5-1.5l-0.8,0.8l1.2,1.2L40,29.3L38.7,28l-1.5,1.5l-1-1L40.3,24.5z"/>
		<path class="st1" d="M43.3,29.2L42.1,28l0.8-0.8l3.4,3.4l-0.8,0.8l-1.2-1.2l-3.2,3.2l-1-1L43.3,29.2z"/>
	</g>
</g>
</svg>
