<?xml version="1.0" encoding="utf-8"?>
<!-- Generator: Adobe Illustrator 21.1.0, SVG Export Plug-In . SVG Version: 6.00 Build 0)  -->
<svg version="1.1" id="Layer_1" xmlns="http://www.w3.org/2000/svg" xmlns:xlink="http://www.w3.org/1999/xlink" x="0px" y="0px"
	 width="59.2px" height="59.5px" viewBox="0 0 59.2 59.5" style="enable-background:new 0 0 59.2 59.5;" xml:space="preserve">
<style type="text/css">
	.st0{fill:#85C441;}
	.st1{fill:#FFFFFF;}
</style>
<g>
	<polygon class="st0" points="59.2,58.9 0.2,0 59.2,0 	"/>
	<g>
		<path class="st1" d="M22.1,6.2c1,1,0.9,2.1,0.9,2.1l-1.2,0.3c0,0,0-0.9-0.6-1.4c-0.8-0.8-1.7-0.6-2.3,0c-0.6,0.6-0.8,1.6-0.1,2.4
			c0.6,0.6,1.6,0.6,1.6,0.6l-0.2,1.2c0,0-1.2,0.1-2.3-1c-1.3-1.3-1.2-3,0-4.2C19.1,5,20.9,5,22.1,6.2z"/>
		<path class="st1" d="M26.2,10.2c1.2,1.2,1.2,3,0.1,4.2c-1.2,1.2-3,1.2-4.2,0c-1.2-1.2-1.2-3,0-4.2C23.2,9,25,9,26.2,10.2z
			 M22.9,13.5c0.6,0.6,1.6,0.6,2.3-0.1c0.7-0.7,0.7-1.6,0.1-2.3c-0.6-0.6-1.6-0.6-2.3,0.1C22.3,11.9,22.3,12.9,22.9,13.5z"/>
		<path class="st1" d="M29.1,13.3l1.1,1.1l-1.1,2.3c-0.2,0.4-0.5,0.9-0.5,0.9l0,0c0,0,0.5-0.3,0.9-0.5l2.3-1.1l1.1,1.1l-3.7,4.4
			l-1-1l1.7-1.9c0.3-0.3,0.7-0.7,0.7-0.7l0,0c0,0-0.6,0.3-0.9,0.5L28,19l-0.8-0.8l0.7-1.6c0.2-0.3,0.5-0.9,0.5-0.9l0,0
			c0,0-0.4,0.4-0.7,0.7L25.7,18l-1-1L29.1,13.3z"/>
		<path class="st1" d="M34,18.2l1.7,1.7c0.8,0.8,0.7,1.9-0.1,2.7s-1.9,0.9-2.7,0.1L32.2,22L31,23.2l-1-1L34,18.2z M33.5,21.6
			c0.3,0.3,0.7,0.3,1.1,0s0.4-0.7,0-1l-0.5-0.5L33,21.1L33.5,21.6z"/>
		<path class="st1" d="M37.6,21.8l1,1L35.4,26l1.7,1.7l-0.8,0.8l-2.6-2.6L37.6,21.8z"/>
		<path class="st1" d="M40.8,25l2.5,2.5l-0.8,0.8l-1.5-1.5l-0.7,0.7l1.2,1.2l-0.8,0.8l-1.2-1.2l-0.8,0.8l1.6,1.6l-0.8,0.8L36.7,29
			L40.8,25z"/>
		<path class="st1" d="M44,29.9l-1.2-1.2l0.8-0.8l3.4,3.4l-0.8,0.8L45,30.9l-3.2,3.2l-1-1L44,29.9z"/>
		<path class="st1" d="M47.6,31.8l2.5,2.5l-0.8,0.8l-1.5-1.5L47,34.4l1.2,1.2l-0.8,0.8l-1.2-1.2L45.4,36l1.6,1.6l-0.8,0.8l-2.6-2.6
			L47.6,31.8z"/>
		<path class="st1" d="M50.9,35.1l1.4,1.4c1.3,1.3,1.3,2.8,0.1,4.1c-1.3,1.3-2.8,1.2-4.1-0.1l-1.4-1.4L50.9,35.1z M49.1,39.7
			c0.7,0.7,1.5,0.7,2.3-0.1c0.8-0.8,0.7-1.6,0.1-2.3L51.1,37l-2.3,2.3L49.1,39.7z"/>
	</g>
</g>
</svg>
