<?xml version="1.0" encoding="utf-8"?>
<!-- Generator: Adobe Illustrator 21.1.0, SVG Export Plug-In . SVG Version: 6.00 Build 0)  -->
<svg version="1.1" id="Layer_1" xmlns="http://www.w3.org/2000/svg" xmlns:xlink="http://www.w3.org/1999/xlink" x="0px" y="0px"
	 width="59.2px" height="59.5px" viewBox="0 0 59.2 59.5" style="enable-background:new 0 0 59.2 59.5;" xml:space="preserve">
<style type="text/css">
	.st0{fill:#147BC1;}
	.st1{fill:#FFFFFF;}
</style>
<polygon class="st0" points="59.2,58.9 0.2,0 59.2,0 "/>
<g>
	<path class="st1" d="M41.5,11.7l1,1l-4,4l-1-1L41.5,11.7z"/>
	<path class="st1" d="M43.5,13.7l1,1l-0.8,3c-0.1,0.4-0.4,1-0.4,1l0,0c0,0,0.4-0.5,0.6-0.7l1.9-1.9l1,1l-4,4l-1-1l0.8-3
		c0.1-0.4,0.4-1,0.4-1l0,0c0,0-0.4,0.5-0.6,0.7l-1.9,1.9l-1-1L43.5,13.7z"/>
	<path class="st1" d="M22.8,6.6l1.7,1.7c0.8,0.8,0.7,1.9-0.1,2.7c-0.8,0.8-1.9,0.9-2.7,0.1L21,10.4l-1.2,1.3l-1-1L22.8,6.6z
		 M22.3,10c0.3,0.3,0.7,0.3,1.1,0s0.4-0.7,0-1L23,8.4l-1.1,1.1L22.3,10z"/>
	<path class="st1" d="M26.4,10.2l1.4,1.4c0.4,0.4,0.6,0.6,0.7,0.9c0.3,0.6,0.2,1.3-0.4,1.9c-0.4,0.4-1.1,0.7-1.7,0.5l0,0
		c0,0,0,0.1-0.1,0.4l-0.6,2.2l-1.1-1.1l0.6-2.1l-0.5-0.5l-1.4,1.4l-1-1L26.4,10.2z M26,13.4c0.3,0.3,0.7,0.3,1,0
		c0.3-0.3,0.4-0.6-0.1-1.1L26.5,12l-1,1L26,13.4z"/>
	<path class="st1" d="M32.1,15.8c1.2,1.2,1.2,3,0.1,4.2c-1.2,1.2-3,1.2-4.2,0c-1.2-1.2-1.2-3,0-4.2C29.1,14.6,30.9,14.6,32.1,15.8z
		 M28.9,19.1c0.6,0.6,1.6,0.6,2.3-0.1c0.7-0.7,0.7-1.6,0.1-2.3c-0.6-0.6-1.6-0.6-2.3,0.1C28.3,17.5,28.3,18.5,28.9,19.1z"/>
	<path class="st1" d="M36.8,20.4c1,1,1,2.1,1,2.1l-1.2,0.3c0,0,0-0.8-0.6-1.4c-0.8-0.8-1.7-0.7-2.3-0.1c-0.8,0.8-0.7,1.8-0.1,2.4
		c0.5,0.5,1.1,0.5,1.1,0.5L35,24l-0.6-0.6l0.8-0.8l1.4,1.4l-2.3,2.3l-0.8-0.8l0.1-0.1c0.1-0.1,0.2-0.2,0.2-0.2l0,0
		c0,0-0.7,0-1.4-0.7c-1-1-1.2-2.8,0.1-4.1C33.8,19.2,35.6,19.2,36.8,20.4z"/>
	<path class="st1" d="M39.2,23l1.4,1.4c0.4,0.4,0.6,0.6,0.7,0.9c0.3,0.6,0.2,1.3-0.4,1.9c-0.4,0.4-1.1,0.7-1.7,0.5l0,0
		c0,0,0,0.1-0.1,0.4l-0.6,2.2l-1.1-1.1l0.6-2.1l-0.5-0.5L36.2,28l-1-1L39.2,23z M38.8,26.3c0.3,0.3,0.7,0.3,1,0
		c0.3-0.3,0.4-0.6-0.1-1.1l-0.3-0.3l-1,1L38.8,26.3z"/>
	<path class="st1" d="M43.1,26.9l2.5,2.5l-0.8,0.8l-1.5-1.5l-0.7,0.7l1.2,1.2l-0.8,0.8l-1.2-1.2l-0.8,0.8l1.6,1.6l-0.8,0.8L39,30.9
		L43.1,26.9z"/>
	<path class="st1" d="M43.8,33.2c0,0,0,0.9,0.5,1.4c0.2,0.2,0.5,0.3,0.7,0.1c0.5-0.5-1.4-2.3-0.1-3.5c0.7-0.7,1.9-0.6,2.7,0.2
		c0.9,0.9,0.8,1.8,0.8,1.8l-1.2,0.4c0,0-0.1-0.8-0.5-1.3c-0.2-0.2-0.5-0.3-0.7-0.1c-0.5,0.5,1.4,2.2,0.1,3.5
		c-0.7,0.7-1.8,0.7-2.7-0.2c-0.9-0.9-0.9-2.1-0.9-2.1L43.8,33.2z"/>
	<path class="st1" d="M47.1,36.5c0,0,0,0.9,0.5,1.4c0.2,0.2,0.5,0.3,0.7,0.1c0.5-0.5-1.4-2.3-0.1-3.5c0.7-0.7,1.9-0.6,2.7,0.2
		c0.9,0.9,0.8,1.8,0.8,1.8l-1.2,0.4c0,0-0.1-0.8-0.5-1.2c-0.2-0.2-0.5-0.3-0.7-0.1c-0.5,0.5,1.4,2.2,0.1,3.5
		c-0.7,0.7-1.8,0.7-2.7-0.2c-0.9-0.9-0.9-2.1-0.9-2.1L47.1,36.5z"/>
</g>
</svg>
